<?xml version="1.0" encoding="UTF-8"?><svg id="a" xmlns="http://www.w3.org/2000/svg" viewBox="0 0 504 504"><defs><style>.b{fill:#10172d;}</style></defs><path class="b" d="m102.8892,375.8413c17.3481,10.2593,40.2866,15.9097,64.5903,15.9097s47.2417-5.6504,64.5898-15.9097c10.221-6.0449,17.8785-13.3066,22.658-21.313,4.7794,8.0063,12.437,15.2681,22.658,21.313,17.3481,10.2593,40.2866,15.9097,64.5898,15.9097s47.2422-5.6504,64.5903-15.9097c18.3364-10.8442,28.4346-25.603,28.4346-41.5571v-164.8174c0-10.0293-4.126-19.8584-11.9316-28.4238l-8.8691,8.083c5.8398,6.4082,8.8008,13.252,8.8008,20.3408,0,11.5405-8.0059,22.6309-22.5435,31.2285-15.5254,9.1816-36.2949,14.2383-58.4814,14.2383s-42.9556-5.0566-58.481-14.2383c-14.5376-8.5977-22.5435-19.688-22.5435-31.2285s8.0059-22.6309,22.5435-31.228c15.5254-9.1821,36.2944-14.2388,58.481-14.2388,19.4448,0,38.2954,4.02,53.0801,11.3193l5.3125-10.7598c-16.4038-8.0991-37.1416-12.5596-58.3926-12.5596-24.3037,0-47.2417,5.6504-64.5898,15.9102-10.2625,6.0688-17.9421,13.3652-22.7175,21.4097-4.7851-7.9111-12.4266-15.0854-22.6151-21.0581-17.3384-10.1641-40.2637-15.7617-64.5527-15.7617s-47.2144,5.5977-64.5527,15.7617c-18.3315,10.7461-28.4326,25.3784-28.4466,41.2051h-.0461v164.8174c0,15.9541,10.0981,30.7129,28.4346,41.5571Zm320.1108-41.5571c0,11.54-8.0059,22.6309-22.5435,31.2285-15.5254,9.1816-36.2949,14.2383-58.4814,14.2383s-42.9556-5.0566-58.481-14.2383c-14.5376-8.5977-22.5435-19.6885-22.5435-31.2285v-53.8813c4.3675,4.7612,9.8698,9.1475,16.4346,13.0298,17.3481,10.2598,40.2861,15.9102,64.5898,15.9102s47.2422-5.6504,64.5903-15.9102c6.5648-3.8823,12.0671-8.2686,16.4346-13.0298v53.8813Zm-145.6147-123.2603c17.3481,10.2598,40.2861,15.9097,64.5898,15.9097s47.2422-5.6499,64.5903-15.9097c6.5648-3.8823,12.0671-8.2686,16.4346-13.0298v52.8145l-.0225.001c.0151.3545.0225.71.0225,1.0659,0,11.5405-8.0059,22.6309-22.5435,31.228-15.5254,9.1826-36.2949,14.2393-58.4814,14.2393s-42.9556-5.0566-58.481-14.2393c-14.5376-8.5972-22.5435-19.6875-22.5435-31.228v-53.8813c4.3675,4.7612,9.8698,9.1475,16.4346,13.0298Zm-109.8853-86.5239c43.9067,0,81,20.6074,81,45s-37.0933,45-81,45-81-20.6074-81-45,37.0933-45,81-45Zm-81.0454,73.2583c4.3776,4.7456,9.8995,9.1152,16.4927,12.98,17.3384,10.1641,40.2637,15.7617,64.5527,15.7617s47.2144-5.5977,64.5527-15.7617c6.5723-3.8525,12.0802-8.207,16.4512-12.9346v53.0049l-.0225.001c.0151.3545.0225.71.0225,1.0659,0,11.5405-8.0059,22.6309-22.5435,31.228-15.5254,9.1826-36.2944,14.2393-58.481,14.2393s-42.9561-5.0566-58.4814-14.2393c-14.5376-8.5972-22.5435-19.6875-22.5435-31.228v-54.1172Zm0,82.6445c4.3675,4.7612,9.8698,9.1475,16.4346,13.0298,17.3481,10.2598,40.2866,15.9102,64.5903,15.9102s47.2417-5.6504,64.5898-15.9102c6.5648-3.8823,12.0671-8.2686,16.4346-13.0298v53.8813c0,11.54-8.0059,22.6309-22.5435,31.2285-15.5254,9.1816-36.2944,14.2383-58.481,14.2383s-42.9561-5.0566-58.4814-14.2383c-14.5376-8.5977-22.5435-19.6885-22.5435-31.2285v-53.8813Z"/></svg>