<?xml version="1.0" encoding="UTF-8"?><svg id="a" xmlns="http://www.w3.org/2000/svg" viewBox="0 0 504 504"><defs><style>.b{fill:#10172d;}</style></defs><path class="b" d="m185.998,227.8027c8.3691,0,14.1787,4.4312,16.3447,11.5205h13.9824c-2.3633-15.2622-14.7695-23.5332-30.3271-23.5332-20.2842,0-33.8721,14.8682-33.8721,35.7427,0,20.2837,12.8008,35.1523,33.8721,35.1523,15.9512,0,29.1455-8.3696,31.4102-23.1396h-13.9814c-2.167,6.6958-8.4688,11.1265-17.4287,11.1265-11.7178,0-20.5791-9.2554-20.5791-23.1392,0-13.3911,8.2705-23.73,20.5791-23.73Z"/><path class="b" d="m232.8613,216.7749v68.9253h12.6035v-25.1084h14.6719c14.375,0,23.4346-8.665,23.4346-21.958,0-12.8989-8.8623-21.8589-23.041-21.8589h-27.6689Zm37.417,21.8589c0,6.4004-3.8398,10.6343-11.4219,10.6343h-13.3916v-21.1699h13.6865c6.9912,0,11.127,4.1357,11.127,10.5356Z"/><path class="b" d="m297.4775,216.7749v42.2412c0,18.7085,12.3086,27.6689,28.4561,27.6689,16.0498,0,28.1611-8.9604,28.1611-27.6689v-42.2412h-12.9971v41.8477c0,10.437-6.2031,16.0493-15.1641,16.0493s-15.459-5.6123-15.459-16.0493v-41.8477h-12.9971Z"/><path class="b" d="m403.5342,108.0073c0-3.3135-2.6865-6-6-6h-57.5635v-30.6206h-12v30.6206h-16.7998v12h80.3633v275.9834H116.0078V114.0073h158.8711v-12h-15.2676v-30.6206h-12v30.6206h-67.3574v-30.6206h-12v30.6206h-58.2461c-3.3135,0-6,2.6865-6,6v57.6323h-30.0068v12h30.0068v68.3594h-30.0068v12h30.0068v67.3574h-30.0068v12h30.0068v58.6343c0,3.3135,2.6865,6,6,6h58.2461v29.6182h12v-29.6182h67.3574v29.6182h12v-29.6182h68.3594v29.6182h12v-29.6182h57.5635c3.3135,0,6-2.6865,6-6v-58.6343h30.6895v-12h-30.6895v-67.3574h30.6895v-12h-30.6895v-68.3594h30.6895v-12h-30.6895v-57.6323Z"/></svg>