<?xml version="1.0" encoding="UTF-8"?><svg id="a" xmlns="http://www.w3.org/2000/svg" viewBox="0 0 505 505"><defs><style>.b{fill:#10172d;}</style></defs><path class="b" d="m469.1426,174.615l-107.1738-.6248-.0703,12,101.209.5898v131.4443H44.104v-132.0908h281.9624v-12H38.104c-3.314,0-6,2.6863-6,6v144.0908c0,3.3137,2.686,6,6,6h431.0034c3.3135,0,6-2.6863,6-6v-143.4094c0-3.3-2.665-5.9807-5.9648-6Z"/><path class="b" d="m221.1162,251.979c0,17.9146,14.5747,32.4893,32.4893,32.4893s32.4893-14.5747,32.4893-32.4893-14.5747-32.4893-32.4893-32.4893-32.4893,14.5747-32.4893,32.4893Zm52.9785,0c0,11.2979-9.1914,20.4893-20.4893,20.4893s-20.4893-9.1914-20.4893-20.4893,9.1914-20.4893,20.4893-20.4893,20.4893,9.1914,20.4893,20.4893Z"/></svg>