<?xml version="1.0" encoding="UTF-8"?><svg id="a" xmlns="http://www.w3.org/2000/svg" viewBox="0 0 504 504"><defs><style>.b{fill:#10172d;}</style></defs><path class="b" d="m424.9902,75.0088h-44.9976v12h38.9893l-.4604,329.9683H88.5415l.46-329.9683h71.0693v47.9971c0,3.3135,2.686,6,6,6h175.9292c3.3135,0,6-2.6865,6-6v-53.9971c0-3.3135-2.6865-6-6-6H83.0098c-3.3105,0-5.9956,2.6812-6,5.9917l-.4766,341.9683c-.002,1.5928.6289,3.1211,1.7544,4.248s2.6528,1.7603,4.2456,1.7603h341.98c3.3105,0,5.9951-2.6812,6-5.9917l.4771-341.9683c.002-1.5928-.6289-3.1211-1.7544-4.248s-2.6528-1.7603-4.2456-1.7603Zm-194.2197,53.9971v-41.9971h46.6997v41.9971h-46.6997Zm105.2295,0h-46.5298v-41.9971h46.5298v41.9971Zm-163.9292-41.9971h46.6997v41.9971h-46.6997v-41.9971Z"/></svg>