<?xml version="1.0" encoding="UTF-8"?><svg id="a" xmlns="http://www.w3.org/2000/svg" viewBox="0 0 504 504"><defs><style>.b{fill:#10172d;}</style></defs><path class="b" d="m403.5342,108.0073c0-3.3135-2.6865-6-6-6h-57.5635v-30.6206h-12v30.6206h-16.7998v12h80.3633v275.9834H116.0078V114.0073h158.8711v-12h-15.2676v-30.6206h-12v30.6206h-67.3574v-30.6206h-12v30.6206h-58.2461c-3.3135,0-6,2.6865-6,6v57.6323h-30.0068v12h30.0068v68.3594h-30.0068v12h30.0068v67.3574h-30.0068v12h30.0068v58.6343c0,3.3135,2.6865,6,6,6h58.2461v29.6182h12v-29.6182h67.3574v29.6182h12v-29.6182h68.3594v29.6182h12v-29.6182h57.5635c3.3135,0,6-2.6865,6-6v-58.6343h30.6895v-12h-30.6895v-67.3574h30.6895v-12h-30.6895v-68.3594h30.6895v-12h-30.6895v-57.6323Z"/><path class="b" d="m185.2002,227.8027c8.1729,0,13.7852,3.8403,15.8525,10.0435h14.1797c-1.8711-12.3081-12.3086-22.0562-30.0322-22.0562-20.6777,0-34.9551,15.459-34.9551,36.4321,0,20.1851,12.7021,34.4629,32.5918,34.4629,11.2256,0,17.8223-4.8252,20.5791-7.582h.7881l1.2803,6.5972h10.3389v-37.4165h-31.2139v10.1416h18.3145v2.9541c0,9.1572-8.1729,13.6865-18.4131,13.6865-13.293,0-20.9727-9.5513-20.9727-22.8438,0-14.0806,8.3691-24.4194,21.6621-24.4194Z"/><path class="b" d="m234.7422,216.7749v68.9253h12.6035v-25.1084h14.6719c14.375,0,23.4346-8.665,23.4346-21.958,0-12.8989-8.8623-21.8589-23.041-21.8589h-27.6689Zm37.417,21.8589c0,6.4004-3.8398,10.6343-11.4219,10.6343h-13.3916v-21.1699h13.6865c6.9912,0,11.127,4.1357,11.127,10.5356Z"/><path class="b" d="m299.3584,216.7749v42.2412c0,18.7085,12.3086,27.6689,28.4561,27.6689,16.0498,0,28.1611-8.9604,28.1611-27.6689v-42.2412h-12.9971v41.8477c0,10.437-6.2031,16.0493-15.1641,16.0493s-15.459-5.6123-15.459-16.0493v-41.8477h-12.9971Z"/></svg>