<?xml version="1.0" encoding="UTF-8"?><svg id="a" xmlns="http://www.w3.org/2000/svg" viewBox="0 0 504 504"><defs><style>.b{fill:#10172d;}</style></defs><path class="b" d="m119,74.8269c-1.5894,0-3.1138.6306-4.2388,1.7534-1.1274,1.1257-1.7612,2.6533-1.7612,4.2466v342.3462c0,3.3137,2.6865,6,6,6h270c3.3135,0,6-2.6863,6-6V81.1731c0-3.3137-2.6865-6-6-6h-45.5459v12h39.5459v330H125V86.8379l182.9893.3352.0215-12-188.9995-.3462h-.0112Z"/><path class="b" d="m286.4893,218.8472c0-17.9146-14.5742-32.4893-32.4893-32.4893s-32.4893,14.5747-32.4893,32.4893,14.5747,32.4893,32.4893,32.4893,32.4893-14.5747,32.4893-32.4893Zm-52.9785,0c0-11.2979,9.1914-20.4893,20.4893-20.4893s20.4893,9.1914,20.4893,20.4893-9.1914,20.4893-20.4893,20.4893-20.4893-9.1914-20.4893-20.4893Z"/><path class="b" d="m311.1465,388.3853c6.333,6.3337,14.6533,9.5007,22.9736,9.5007s16.6396-3.167,22.9727-9.5007c12.668-12.6677,12.668-33.2793,0-45.947-11.9336-11.9338-101.8223-64.4443-102.709-64.9529-2.3584-1.3538-5.3354-.9514-7.25.9824s-2.2881,4.9138-.9102,7.26c12.5986,21.4509,54.5137,92.2493,64.9229,102.6575Zm37.4619-37.4617c7.9883,7.9888,7.9883,20.9875,0,28.9763-7.9893,7.988-20.9863,7.9895-28.9775,0-5.9629-5.9636-28.417-41.9758-51.2275-80.2493,28.5547,17.0161,73.3398,44.4087,80.2051,51.2729Z"/><path class="b" d="m254,104.9136c-62.8232,0-113.9336,51.1104-113.9336,113.9336,0,28.7766,10.7563,56.25,30.2881,77.3591,19.4214,20.9897,45.7554,33.8403,74.1519,36.1843l.9873-11.9595c-25.397-2.0964-48.9541-13.594-66.3311-32.3745-17.4731-18.8848-27.0962-43.4636-27.0962-69.2095,0-56.2063,45.7271-101.9336,101.9336-101.9336s101.9336,45.7273,101.9336,101.9336c0,28.9048-12.3457,56.5635-33.873,75.884l8.0156,8.9307c24.0586-21.5935,37.8574-52.5071,37.8574-84.8147,0-62.8232-51.1104-113.9336-113.9336-113.9336Z"/></svg>