<?xml version="1.0" encoding="UTF-8"?><svg id="a" xmlns="http://www.w3.org/2000/svg" viewBox="0 0 504 504"><defs><style>.b{fill:#10172d;}</style></defs><path class="b" d="m377.6626,112.5518l-9.0547,9.3281c9.52,9.2407,14.3467,19.0947,14.3467,29.2891,0,16.606-13.0122,32.5581-36.6392,44.918-24.9634,13.0596-58.2969,20.251-93.8608,20.251s-68.8975-7.1914-93.8608-20.251c-23.627-12.3599-36.6392-28.312-36.6392-44.918s13.0122-32.5576,36.6392-44.918c24.9634-13.0586,58.2969-20.251,93.8608-20.251,31.1577,0,61.395,5.7119,85.1421,16.083l5.2031-11.9141c-25.3516-11.0713-57.4365-17.1689-90.3452-17.1689-37.624,0-73.0981,7.7178-99.8867,21.7319-28.1245,14.7129-43.6133,34.7563-43.6133,56.437v201.6621c0,21.6807,15.4888,41.7241,43.6133,56.437,26.7886,14.0142,62.2627,21.7319,99.8867,21.7319s73.0981-7.7178,99.8867-21.7319c28.1245-14.7129,43.6133-34.7563,43.6133-56.437v-201.6621c0-13.6475-6.3252-27.001-18.292-38.6172Zm5.292,240.2793c0,16.6055-13.0122,32.5576-36.6392,44.918-24.9634,13.0586-58.2969,20.251-93.8608,20.251s-68.8975-7.1924-93.8608-20.251c-23.627-12.3604-36.6392-28.3125-36.6392-44.918v-67.8506c7.3188,8.7139,17.6127,16.6558,30.6133,23.457,26.7886,14.0137,62.2627,21.7314,99.8867,21.7314s73.0981-7.7178,99.8867-21.7314c13.0005-6.8013,23.2944-14.7432,30.6133-23.457v67.8506Zm0-102.353l-.0366.0015c.0244.5054.0366,1.0122.0366,1.5205,0,16.6055-13.0122,32.5581-36.6392,44.918-24.9634,13.0591-58.2969,20.251-93.8608,20.251s-68.8975-7.1919-93.8608-20.251c-23.627-12.3599-36.6392-28.3125-36.6392-44.918v-67.8506c7.3188,8.7144,17.6127,16.6558,30.6133,23.457,26.7886,14.0137,62.2627,21.7314,99.8867,21.7314s73.0981-7.7178,99.8867-21.7314c13.0005-6.8013,23.2944-14.7427,30.6133-23.457v66.3286Z"/></svg>