<?xml version="1.0" encoding="UTF-8"?><svg id="a" xmlns="http://www.w3.org/2000/svg" viewBox="0 0 504 504"><defs><style>.b{fill:#10172d;}</style></defs><path class="b" d="m418.818,164.2466v100.2119h-122.8047l.0791-29.9087-12-.0312-.0947,35.9243c-.0039,1.5938.626,3.124,1.752,4.2524,1.125,1.1289,2.6543,1.7632,4.248,1.7632h128.8203v77h-122.8203v-30h-12v36c0,3.3135,2.6865,6,6,6h128.8203v51.5415h-185.875v-240.1567l147.2529-.3447-.0273-12-153.2393.3589c-3.3086.0078-5.9863,2.6919-5.9863,6v252.1426c0,3.3135,2.6865,6,6,6h197.875c3.3135,0,6-2.6865,6-6V164.2466h-12Z"/><path class="b" d="m160.7281,122h138.5469v-12h-144.5469c-3.3135,0-6,2.686-6,6v253c0,3.314,2.6865,6,6,6h35.9961v-12h-29.9961V122Z"/><path class="b" d="m89.0826,77h101.9209v-12h-107.9209c-3.3135,0-6,2.686-6,6v252c0,3.314,2.6865,6,6,6h35.7354v-12h-29.7354V77Z"/></svg>