<?xml version="1.0" encoding="UTF-8"?><svg id="a" xmlns="http://www.w3.org/2000/svg" viewBox="0 0 504 504"><defs><style>.b{fill:#10172d;}</style></defs><path class="b" d="m110.1953,228.3645c-3.3135,0-6,2.6863-6,6v35.25c0,3.3137,2.6865,6,6,6h71.9072c3.3135,0,6-2.6863,6-6v-35.25c0-3.3137-2.6865-6-6-6h-71.9072Zm65.9072,35.25h-59.9072v-23.25h59.9072v23.25Z"/><path class="b" d="m218.0488,228.3645c-3.3135,0-6,2.6863-6,6v35.25c0,3.3137,2.6865,6,6,6h71.9072c3.3135,0,6-2.6863,6-6v-35.25c0-3.3137-2.6865-6-6-6h-71.9072Zm65.9072,35.25h-59.9072v-23.25h59.9072v23.25Z"/><path class="b" d="m319.8975,234.3645v35.25c0,3.3137,2.6865,6,6,6h71.9072c3.3135,0,6-2.6863,6-6v-35.25c0-3.3137-2.6865-6-6-6h-71.9072c-3.3135,0-6,2.6863-6,6Zm12,6h59.9072v23.25h-59.9072v-23.25Z"/><path class="b" d="m469.1426,174.6255l-107.1738-.6248-.0703,12,101.209.5898v131.4443H44.1045v-132.0908h281.9619v-12H38.1045c-3.3135,0-6,2.6863-6,6v144.0908c0,3.3137,2.6865,6,6,6h431.0029c3.3135,0,6-2.6863,6-6v-143.4094c0-3.3-2.665-5.9807-5.9648-6Z"/></svg>