<?xml version="1.0" encoding="UTF-8"?><svg id="a" xmlns="http://www.w3.org/2000/svg" viewBox="0 0 504 504"><defs><style>.b{fill:#10172d;}</style></defs><path class="b" d="m77.5283,221.499h-.0508c0,.5923.0201,1.1812.0508,1.7686v80.9111h-.0508c0,32.3193,45.9277,57.6367,104.5586,57.6367,14.7867,0,29.4143-1.7114,42.7734-4.9453v16.5464h-.0518c0,32.3193,45.9277,57.6362,104.5596,57.6362v-12c-50.1729,0-92.5596-20.8989-92.5596-45.6362h.0518v-55.4033c17.3793,18.209,51.8926,30.3599,92.5078,30.3599v-12c-49.2114,0-90.927-20.1064-92.5078-44.2192v-56.8203c17.3793,18.209,51.8926,30.3599,92.5078,30.3599,40.6553,0,75.1963-12.1753,92.5586-30.4146v86.7383h12v-113.9604c0-10.1953-4.6885-20.1416-13.5576-28.7646l-8.3652,8.604c6.584,6.4009,9.9229,13.1841,9.9229,20.1606,0,24.7373-42.3867,45.6367-92.5586,45.6367-49.2114,0-90.927-20.1064-92.5078-44.2197v-1.417h-.0518c0-9.7954,6.6511-18.9878,17.7955-26.52,3.002-1.561,5.8309-3.2212,8.4735-4.9712,16.9619-8.666,40.6042-14.145,66.2905-14.145,22.2354,0,43.7988,4.0757,60.7188,11.4761l4.8086-10.9941c-18.4023-8.0493-41.6738-12.4819-65.5273-12.4819-15.3044,0-29.7402,1.728-42.7227,4.8521v-10.0591c.3418-1.9395.5186-3.9097.5186-5.9067,0-32.4443-46.1445-57.8594-105.0518-57.8594s-105.0518,25.415-105.0518,57.8594c0,1.9971.1768,3.9673.5186,5.9067v76.2856Zm147.2812,122.9902c-13.1757,3.4771-27.8635,5.3262-42.7734,5.3262-50.1719,0-92.5586-20.8994-92.5586-45.6367h.0508v-55.4043c17.3789,18.21,51.8925,30.3608,92.5078,30.3608,14.7874,0,29.415-1.7114,42.7734-4.9448v16.5459h-.0518c0,.5972.0206,1.1914.0518,1.7837v51.9692Zm-.0518-136.4326c0,.5972.0206,1.1909.0518,1.7832v51.9697c-13.175,3.4771-27.8635,5.3257-42.7734,5.3257-49.2188,0-90.9403-20.1128-92.5078-44.2314v-55.7827c17.592,18.0405,52.0483,30.0449,92.5332,30.0449,17.02,0,32.9705-2.125,47.0544-5.9248-2.8345,5.3013-4.3582,10.9419-4.3582,16.8154Zm-42.6963-114.6094c50.4395,0,93.0518,21.001,93.0518,45.8594,0,9.8501-6.6953,19.0923-17.9121,26.6646-2.9934,1.5562-5.8145,3.2114-8.4495,4.957-17.0555,8.7222-40.8438,14.2378-66.6902,14.2378-47.207,0-87.5552-18.3955-92.5332-41.1323v-.0288h-.0068c-.3368-1.5474-.5117-3.1147-.5117-4.6982,0-24.8584,42.6123-45.8594,93.0518-45.8594Z"/><polygon class="b" points="425.1709 342.9312 393.1465 374.9556 361.1221 342.9312 352.6377 351.4165 384.6616 383.4404 352.6377 415.4639 361.1221 423.9492 393.1465 391.9253 425.1709 423.9492 433.6553 415.4639 401.6313 383.4404 433.6553 351.4165 425.1709 342.9312"/></svg>