<?xml version="1.0" encoding="UTF-8"?><svg id="a" xmlns="http://www.w3.org/2000/svg" viewBox="0 0 504 504"><defs><style>.b{fill:#10172d;}</style></defs><path class="b" d="m221.2715,251.2373c0-20.1851-14.9668-35.4473-35.25-35.4473-20.3828,0-35.251,15.2622-35.251,35.4473,0,20.2842,14.9668,35.4478,35.251,35.4478h.1963c3.4463,8.4678,10.1416,11.7173,19.6934,11.7173,3.5449,0,7.0889-.4927,10.1416-1.0835v-9.354c-2.4619.394-5.2188.6895-7.4834.6895-5.3174,0-8.5664-1.1816-10.5352-3.8403,13.9814-4.7261,23.2373-17.7236,23.2373-33.5767Zm-35.1523,23.4346c-12.7012,0-22.0557-10.043-22.0557-23.4346s9.3545-23.4346,21.958-23.4346,21.957,10.0435,21.957,23.4346-9.2559,23.4346-21.8594,23.4346Z"/><polygon class="b" points="237.6318 216.7749 237.6318 285.7002 284.6982 285.7002 284.6982 274.0815 250.334 274.0815 250.334 216.7749 237.6318 216.7749"/><path class="b" d="m327.4248,227.8027c8.3691,0,14.1787,4.4312,16.3447,11.5205h13.9824c-2.3633-15.2622-14.7695-23.5332-30.3271-23.5332-20.2842,0-33.8721,14.8682-33.8721,35.7427,0,20.2837,12.8008,35.1523,33.8721,35.1523,15.9512,0,29.1455-8.3696,31.4102-23.1396h-13.9814c-2.167,6.6958-8.4688,11.1265-17.4287,11.1265-11.7178,0-20.5791-9.2554-20.5791-23.1392,0-13.3911,8.2705-23.73,20.5791-23.73Z"/><path class="b" d="m424.9902,75.0088h-44.9976v12h38.9893l-.4604,329.9683H88.5415l.46-329.9683h71.0693v47.9971c0,3.3135,2.686,6,6,6h175.9292c3.3135,0,6-2.6865,6-6v-53.9971c0-3.3135-2.6865-6-6-6H83.0098c-3.3105,0-5.9956,2.6812-6,5.9917l-.4766,341.9683c-.002,1.5928.6289,3.1211,1.7544,4.248s2.6528,1.7603,4.2456,1.7603h341.98c3.3105,0,5.9951-2.6812,6-5.9917l.4771-341.9683c.002-1.5928-.6289-3.1211-1.7544-4.248s-2.6528-1.7603-4.2456-1.7603Zm-194.2197,53.9971v-41.9971h46.6997v41.9971h-46.6997Zm105.2295,0h-46.5298v-41.9971h46.5298v41.9971Zm-163.9292-41.9971h46.6997v41.9971h-46.6997v-41.9971Z"/></svg>