<?xml version="1.0" encoding="UTF-8"?><svg id="a" xmlns="http://www.w3.org/2000/svg" viewBox="0 0 504 504"><defs><style>.b{fill:#10172d;}</style></defs><path class="b" d="m77.0098,234.3645v35.25c0,3.3137,2.6865,6,6,6h341.9805c3.3135,0,6-2.6863,6-6v-35.25c0-3.3137-2.6865-6-6-6H83.0098c-3.3135,0-6,2.6863-6,6Zm12,6h329.9805v23.25H89.0098v-23.25Z"/><path class="b" d="m469.1426,174.6255l-107.1738-.6248-.0703,12,101.209.5898v131.4443H44.104v-132.0908h281.9624v-12H38.104c-3.314,0-6,2.6863-6,6v144.0908c0,3.3137,2.686,6,6,6h38.9058v29.9578h12v-29.9578h56.396v29.9578h12v-29.9578h56.396v29.9578h12v-29.9578h56.3965v29.9578h12v-29.9578h56.396v29.9578h12v-29.9578h56.396v29.9578h12v-29.9578h38.1172c3.3135,0,6-2.6863,6-6v-143.4094c0-3.3-2.665-5.9807-5.9648-6Z"/></svg>