<?xml version="1.0" encoding="UTF-8"?><svg id="a" xmlns="http://www.w3.org/2000/svg" viewBox="0 0 504 504"><defs><style>.b{fill:#10172d;}</style></defs><path class="b" d="m411.4717,157.6631c5.8398,6.4082,8.8008,13.252,8.8008,20.3408,0,11.5405-8.0059,22.6309-22.543,31.2285-15.5254,9.1821-36.2949,14.2388-58.4814,14.2388s-42.9561-5.0571-58.4814-14.2388c-14.5371-8.5977-22.543-19.688-22.543-31.2285s8.0059-22.6304,22.543-31.2275c15.5254-9.1826,36.2949-14.2393,58.4814-14.2393,19.4443,0,38.2959,4.0205,53.0801,11.3193l5.3125-10.7598c-16.4043-8.0991-37.1416-12.5596-58.3926-12.5596-24.3037,0-47.2422,5.6504-64.5898,15.9102-10.2628,6.0693-17.9426,13.3652-22.718,21.4102-4.7851-7.9116-12.4266-15.0859-22.6151-21.0586-17.3384-10.1641-40.2637-15.7617-64.5527-15.7617s-47.2139,5.5977-64.5522,15.7617c-18.3318,10.7461-28.4329,25.3789-28.4471,41.2051h-.0456v164.8174c0,15.9541,10.0981,30.7129,28.4346,41.5571,17.3477,10.2598,40.2861,15.9097,64.5898,15.9097v-12c-22.1865,0-42.9556-5.0566-58.4814-14.2383-14.5371-8.5977-22.543-19.688-22.543-31.2285v-53.8813c4.3675,4.7612,9.8698,9.1475,16.4346,13.0298,17.3477,10.2598,40.2861,15.9102,64.5898,15.9102s47.2715-5.6494,64.6548-15.9072c6.5279-3.8521,12.0084-8.1992,16.3701-12.916v53.7646h12.0005v-55.0771c15.9879,17.9648,46.5126,30.1357,81.4707,30.1357,24.3037,0,47.2422-5.6504,64.5898-15.9102,6.5647-3.8823,12.067-8.269,16.4346-13.0303v53.8818c0,11.5405-8.0059,22.6309-22.543,31.2285-15.5254,9.1816-36.2949,14.2383-58.4814,14.2383v12c24.3037,0,47.2422-5.6499,64.5898-15.9097,18.3359-10.8442,28.4346-25.603,28.4346-41.5571v-164.8174c0-10.0293-4.126-19.8579-11.9316-28.4233l-8.8691,8.0825Zm-246.6992-24.626c43.9067,0,81,20.6074,81,45s-37.0933,45-81,45-81-20.6074-81-45,37.0933-45,81-45Zm-.0205,172.8428c-22.1865,0-42.9556-5.0566-58.4814-14.2393-14.5371-8.5972-22.543-19.6875-22.543-31.2275v-54.1167c4.3776,4.7451,9.8995,9.1147,16.4927,12.9795,17.3384,10.1641,40.2632,15.7612,64.5522,15.7612s47.2144-5.5972,64.5527-15.7612c6.5725-3.853,12.0806-8.2075,16.4517-12.9355v56.5928c-2.4274,23.5278-38.5381,42.9468-81.0249,42.9468Zm255.5205-46.5337l-.0225.001c.0156.354.0225.7095.0225,1.0659,0,11.54-8.0059,22.6304-22.543,31.2275-15.5254,9.1826-36.2949,14.2393-58.4814,14.2393-22.0449,0-42.8447-5.2769-58.5674-14.8579-14.4668-8.8159-22.7646-20.4536-22.7646-31.9282h-.0038c-.0021-.0869.0016-.1738-.0021-.2607l-.1328.0059v-52.7949c4.4359,4.9502,10.092,9.5024,16.8809,13.5176,17.3477,10.2598,40.2861,15.9097,64.5898,15.9097s47.2422-5.6499,64.5898-15.9097c6.5647-3.8828,12.067-8.269,16.4346-13.0303v52.8149Z"/><path class="b" d="m221.0205,354.7925l-33.7212,35.2915c-1.6597,1.7368-2.123,4.2959-1.1787,6.5044.3009.7036.7368,1.3169,1.2545,1.8423l-.0109.0107,32.7715,33.2461,8.5459-8.4238-22.7054-23.0342h91.5964l-22.7054,23.0342,8.5469,8.4238,32.7715-33.2461-.0111-.0112c.5176-.5249.9535-1.1382,1.2543-1.8423.9443-2.208.4805-4.7671-1.1787-6.5039l-33.7217-35.2915-8.6758,8.29,24.0273,25.147h-92.2109l24.0273-25.147-8.6758-8.29Z"/></svg>