<?xml version="1.0" encoding="UTF-8"?><svg id="a" xmlns="http://www.w3.org/2000/svg" viewBox="0 0 504 504"><defs><style>.b{fill:#10172d;}</style></defs><path class="b" d="m378.608,75.499l-57.9658-.4902-.1016,12,52.0166.4399v122.5894h-174.957l.1396-48.0537-12-.0352-.1572,54.0713c-.0049,1.5942.626,3.125,1.751,4.2539,1.126,1.1289,2.6543,1.7637,4.249,1.7637h180.9746v103.5801h-174.9746v-46.1748h-12v52.1748c0,3.3135,2.6865,6,6,6h180.9746v78.8818h-243.0498V87.4804l151.4531-.4717-.0371-12-157.4346.4902c-3.3066.0103-5.9814,2.6938-5.9814,6v341.001c0,3.3135,2.6865,6,6,6h255.0498c3.3135,0,6-2.6865,6-6V81.499c0-3.2939-2.6553-5.9717-5.9492-6Z"/></svg>