<?xml version="1.0" encoding="UTF-8"?><svg id="a" xmlns="http://www.w3.org/2000/svg" viewBox="0 0 504 504"><defs><style>.b{fill:#10172d;}</style></defs><path class="b" d="m169.6611,275.6567c-7.877,0-12.3076-4.1353-12.8984-11.0278h-12.8008c.4922,13.1943,9.2559,22.0562,25.6992,22.0562,12.7021,0,23.9268-6.4004,23.9268-19.8901,0-14.376-12.6035-19.0039-19.1016-20.9731l-3.4463-1.083c-5.8096-1.7725-11.8164-3.7417-11.8164-9.6494,0-5.022,4.2344-8.271,10.3389-8.271,6.5977,0,10.0439,3.8398,10.6348,9.2554h12.7998c-.3936-11.7173-9.3535-20.2837-23.5322-20.2837-13.293,0-23.3369,7.582-23.3369,19.8901,0,11.4219,8.8623,16.6406,17.3301,19.2007l3.9385,1.1812c6.3018,1.8711,13.0957,4.1357,13.0957,11.127,0,6.0063-4.9229,8.4678-10.8311,8.4678Z"/><path class="b" d="m240.9531,227.8027c8.3691,0,14.1787,4.4312,16.3447,11.5205h13.9824c-2.3633-15.2622-14.7695-23.5332-30.3271-23.5332-20.2842,0-33.8721,14.8682-33.8721,35.7427,0,20.2837,12.8008,35.1523,33.8721,35.1523,15.9512,0,29.1455-8.3696,31.4102-23.1396h-13.9814c-2.167,6.6958-8.4688,11.1265-17.4287,11.1265-11.7178,0-20.5791-9.2554-20.5791-23.1392,0-13.3911,8.2705-23.73,20.5791-23.73Z"/><polygon class="b" points="362.2559 285.7002 362.2559 216.7749 346.4033 216.7749 325.5283 264.0381 324.7412 264.0381 303.7676 216.7749 287.8164 216.7749 287.8164 285.7002 300.5186 285.7002 300.5186 239.9141 301.3066 239.9141 318.5381 277.8232 331.6338 277.8232 348.7666 239.9141 349.5537 239.9141 349.5537 285.7002 362.2559 285.7002"/><path class="b" d="m424.9902,75.0088h-44.9971v12h38.9883l-.459,329.9683H88.5415l.46-329.9683h71.0693v47.9971c0,3.3135,2.686,6,6,6h175.9292c3.3135,0,6-2.6865,6-6v-53.9971c0-3.3135-2.6865-6-6-6H83.0098c-3.3105,0-5.9956,2.6812-6,5.9917l-.4766,341.9683c-.002,1.5928.6289,3.1211,1.7544,4.248s2.6528,1.7603,4.2456,1.7603h341.9805c3.3105,0,5.9951-2.6812,6-5.9917l.4766-341.9683c.002-1.5928-.6289-3.1211-1.7549-4.248-1.125-1.127-2.6523-1.7603-4.2451-1.7603Zm-194.2197,53.9971v-41.9971h46.6992v41.9971h-46.6992Zm105.2295,0h-46.5303v-41.9971h46.5303v41.9971Zm-163.9292-41.9971h46.6997v41.9971h-46.6997v-41.9971Z"/></svg>