<?xml version="1.0" encoding="utf-8"?>
<!-- Generator: Adobe Illustrator 26.3.1, SVG Export Plug-In . SVG Version: 6.00 Build 0)  -->
<svg version="1.1" id="Layer_1" xmlns="http://www.w3.org/2000/svg" xmlns:xlink="http://www.w3.org/1999/xlink" x="0px" y="0px"
	 viewBox="0 0 1136 240" style="enable-background:new 0 0 1136 240;" xml:space="preserve">
<style type="text/css">
	.st0{fill:#FFFFFF;}
</style>
<g>
	<path class="st0" d="M207.9,18.3l-13.4-6.4c-7.9-3.8-17.3-0.4-21,7.6l-3.8,7.1l-58.8,125.9L52.1,26.5l-3.8-7.1
		c-3.7-8-13.1-11.4-21-7.6l-13.4,6.4C6.1,22,2.2,32,5.9,40l3.3,6.6l80,171.2c3.9,8.3,12.2,13.6,21.3,13.6c0,0,0.1,0,0.1,0h0.5
		c0,0,0.1,0,0.1,0c9.1,0,17.4-5.3,21.3-13.6l80-171.2l3.3-6.6C219.6,32,215.8,22,207.9,18.3z"/>
	<path class="st0" d="M334,223.4l13.4,6.4c7.9,3.8,17.3,0.4,21-7.6l3.8-7.1l58.8-125.9l58.8,125.9l3.8,7.1c3.7,8,13.1,11.4,21,7.6
		l13.4-6.4c7.9-3.8,11.7-13.7,8-21.7l-3.3-6.6l-80-171.2c-3.9-8.3-12.2-13.6-21.3-13.6c0,0-0.1,0-0.1,0h-0.5c0,0-0.1,0-0.1,0
		c-9.1,0-17.4,5.3-21.3,13.6l-80,171.2l-3.3,6.6C322.3,209.6,326.1,219.6,334,223.4z"/>
	<path class="st0" d="M811.1,57.5c8.8,0.4,16.2-6.3,16.5-15.1l0.5-14.8c0.3-8.7-6.7-16.8-15.5-17.2l-8.1-0.1h-92.4
		c-0.5,0-1,0-1.6,0.1c-24.4,1.6-60.8,19.2-60.8,61c0,42.5,35.9,61.5,55.2,65.7l48.2,11.6c0.7,0.2,1.4,0.3,2.1,0.4
		c2.6,0.4,15.3,3,15.3,17.3c0,8.6-4.3,13.7-12.9,15.1h-90.7l-6.2,0.1c-8.8-0.4-16.2,6.3-16.5,15.1l-0.5,14.8
		c-0.3,8.7,6.7,16.8,15.5,17.2l7.7,0.1h92.4c0.7,0,1.5,0,2.2-0.1c22.6-2.1,56.3-20.4,56.3-62.3c0-43.3-35-60.6-54.5-63.9l-47.6-11.4
		c-0.2-0.1-0.4-0.1-0.6-0.1c-0.7-0.2-18.1-4-18.1-19.5c0-10.3,9.9-13.1,16.2-13.8h91.2L811.1,57.5z"/>
	<path class="st0" d="M1130.6,25.9c0-8.7-7.2-15.7-16-15.6l-7.6,0H959.1l-7.6,0c-8.8-0.1-15.9,6.9-16,15.6l0,15
		c0,8.7,7.3,16.5,16.1,16.7l11,0h46.9v147.5l0,0l0,7.6c-0.1,8.8,6.9,15.9,15.6,16l15,0c8.7,0,16.5-7.3,16.7-16.1l0-7.6h0V57.6h46.9
		l11,0c8.8-0.1,16.1-7.9,16.1-16.7L1130.6,25.9z"/>
</g>
</svg>
