<?xml version="1.0" encoding="UTF-8"?><svg id="a" xmlns="http://www.w3.org/2000/svg" viewBox="0 0 504 504"><defs><style>.b{fill:#10172d;}</style></defs><path class="b" d="m469.1074,330.0244c3.3135,0,6-2.6865,6-6v-143.4092c0-3.3003-2.665-5.981-5.9648-6l-107.1738-.625-.0703,12,101.209.5898v131.4443H44.1045v-132.0908h281.9619v-12H38.1045c-3.3135,0-6,2.6865-6,6v144.0908c0,3.3135,2.6865,6,6,6h431.0029Z"/><path class="b" d="m237.2935,228.5151c1.5847,0,2.8694-1.2998,2.8694-2.9033v-3.5439c0-1.6035-1.3208-3.0347-2.9055-3.0347h-22.4092c-.116,0-.2336.0186-.3425.0576-3.3593,1.21-4.1903,4.8398-2.673,7.2563l20.5126,32.3809c.8474,1.3599,2.6252,1.7642,3.9661.9019l2.9583-1.9023c1.333-.8574,1.7307-2.6436.8894-3.9966l-16.0073-25.2148,5.1873-.001h7.9546Z"/><path class="b" d="m285.2026,242.625l10.6221-17.0566c.062-.0996.1094-.2104.1348-.3252.7764-3.521-1.6072-6.1221-4.4365-6.1094l-38.2146.0361c-2.4231.0024-4.3831.9297-4.3718,3.3818l.0093,3.1353c.0068,1.5693,1.2664,2.8379,2.8174,2.8379l31.3665.0059-5.9275,9.2095c-.8286,1.3325-.4326,3.0928.8843,3.9312l3.2312,1.8486c1.3171.8384,3.0564.438,3.885-.895Z"/><path class="b" d="m250.7974,289.1636c.0537.1045.1245.2017.21.2822,2.6238,2.4736,5.5745,1.8677,7.0156-.5669l19.8137-31.5732c1.2412-2.0811,1.4509-4.2388-.6589-5.4878l-2.6958-1.6011c-1.3506-.7993-3.0857-.3691-3.8816.9619l-16.2275,25.5513-7.0586-10.3384c-.7185-1.395-2.4324-1.9585-3.8279-1.2583l-3.2449,1.8247c-1.3955.6997-1.9778,2.3818-1.2593,3.7764l11.8152,18.4292Z"/></svg>